<?xml version="1.0" standalone="no"?><!DOCTYPE svg PUBLIC "-//W3C//DTD SVG 1.1//EN" "http://www.w3.org/Graphics/SVG/1.1/DTD/svg11.dtd"><svg class="icon" width="32px" height="32.00px" viewBox="0 0 1024 1024" version="1.1" xmlns="http://www.w3.org/2000/svg"><path fill="#ffffff" d="M725.2 902.65H297.47c-7.15 0-13.75-3.81-17.32-10L66.29 522.22a20.013 20.013 0 0 1 0-20L280.15 131.8c3.57-6.19 10.18-10 17.32-10H725.2c7.15 0 13.75 3.81 17.32 10l213.86 370.42a20.013 20.013 0 0 1 0 20L742.52 892.65a20.02 20.02 0 0 1-17.32 10z m-416.18-40h404.63l202.32-350.42L713.65 161.8H309.02L106.7 512.22l202.32 350.43z"  /><path fill="#ffffff" d="M511.33 360.22c40.6 0 78.77 15.81 107.48 44.52s44.52 66.88 44.52 107.48-15.81 78.77-44.52 107.48-66.88 44.52-107.48 44.52-78.77-15.81-107.48-44.52-44.52-66.88-44.52-107.48 15.81-78.77 44.52-107.48 66.88-44.52 107.48-44.52m0-40c-106.04 0-192 85.96-192 192s85.96 192 192 192 192-85.96 192-192-85.96-192-192-192z"  /></svg>